<svg id="e6g5xB4IaQR1" xmlns="http://www.w3.org/2000/svg" xmlns:xlink="http://www.w3.org/1999/xlink" viewBox="0 0 512 512" shape-rendering="geometricPrecision" text-rendering="geometricPrecision"><path id="e6g5xB4IaQR2" d="M334.018000,454.513000L294.865000,454.513000L294.865000,411.151000C294.865000,408.733000,291.487000,406.773000,287.320000,406.773000L224.680000,406.773000C220.513000,406.773000,217.135000,408.734000,217.135000,411.151000L217.135000,454.513000L186.114000,454.513000C186.005000,454.513000,185.897000,454.515000,185.789000,454.520000C185.681000,454.516000,185.573000,454.513000,185.464000,454.513000L177.982000,454.513000C156.627000,454.513000,139.253000,471.887000,139.253000,493.242000L139.253000,504.456000C139.253000,508.623000,142.631000,512.001000,146.798000,512.001000L365.202000,512.001000C369.369000,512.001000,372.747000,508.623000,372.747000,504.456000L372.747000,493.242000C372.747000,471.886000,355.374000,454.513000,334.018000,454.513000Z" fill="rgb(255,166,0)" stroke="none" stroke-width="1" stroke-miterlimit="1"/><path id="e6g5xB4IaQR3" d="M287.321000,406.773000L264.184000,406.773000C268.351000,406.773000,271.729000,408.734000,271.729000,411.152000L271.729000,457.070000L294.866000,457.070000L294.866000,411.152000C294.865000,408.733000,291.487000,406.773000,287.321000,406.773000Z" fill="rgb(255,144,44)" stroke="none" stroke-width="1" stroke-miterlimit="1"/><path id="e6g5xB4IaQR4" d="M334.018000,454.513000L186.114000,454.513000C186.005000,454.513000,185.897000,454.515000,185.789000,454.520000C185.681000,454.516000,185.573000,454.513000,185.464000,454.513000L177.982000,454.513000C156.627000,454.513000,139.253000,471.887000,139.253000,493.242000L139.253000,504.456000C139.253000,508.623000,142.631000,512.001000,146.798000,512.001000L365.202000,512.001000C369.369000,512.001000,372.747000,508.623000,372.747000,504.456000L372.747000,493.242000C372.747000,471.886000,355.374000,454.513000,334.018000,454.513000Z" fill="rgb(255,166,0)" stroke="none" stroke-width="1" stroke-miterlimit="1"/><path id="e6g5xB4IaQR5" d="M334.018000,454.513000L310.881000,454.513000C332.236000,454.513000,349.610000,471.887000,349.610000,493.242000L349.610000,504.456000C349.610000,508.623000,346.232000,512.001000,342.065000,512.001000L365.202000,512.001000C369.369000,512.001000,372.747000,508.623000,372.747000,504.456000L372.747000,493.242000C372.747000,471.886000,355.374000,454.513000,334.018000,454.513000Z" fill="rgb(255,144,44)" stroke="none" stroke-width="1" stroke-miterlimit="1"/><path id="e6g5xB4IaQR6" d="M256,0C230.406000,0,203.573000,5.382000,178.401000,15.562000C150.159000,26.984000,125.655000,43.590000,105.566000,64.921000C68.193000,102.775000,49.247000,150.492000,49.247000,206.754000C49.247000,225.844000,51.859000,244.334000,56.725000,261.895000C56.779000,262.217000,56.847000,262.539000,56.945000,262.859000C56.979000,262.972000,57.035000,263.071000,57.074000,263.182000C81.692000,349.848000,161.551000,413.508000,256,413.508000C370.004000,413.508000,462.753000,320.759000,462.753000,206.755000C462.753000,92.751000,370.004000,0,256,0ZM431.776000,130.389000L401.595000,144.870000C377.460000,88.301000,321.286000,48.549000,256,48.549000C236.633000,48.549000,218.070000,52.054000,200.905000,58.452000L185.024000,29.172000C208.133000,19.962000,232.651000,15.089000,256,15.089000C334.555000,15.089000,402.211000,62.598000,431.776000,130.389000ZM306.313000,198.960000C307.611000,201.665000,310.309000,203.242000,313.120000,203.242000C314.214000,203.242000,315.326000,203.003000,316.378000,202.498000L393.100000,165.683000C397.006000,178.699000,399.116000,192.483000,399.116000,206.753000C399.116000,267.670000,360.856000,319.809000,307.107000,340.428000L276.911000,258.052000C275.477000,254.138000,271.140000,252.131000,267.231000,253.565000C263.319000,254.999000,261.310000,259.333000,262.744000,263.245000L292.742000,345.080000C281.012000,348.198000,268.698000,349.869000,256,349.869000C192.677000,349.869000,138.836000,308.526000,120.029000,251.419000L209.955000,223.863000C213.939000,222.643000,216.179000,218.423000,214.959000,214.439000C213.738000,210.455000,209.519000,208.215000,205.535000,209.435000L116.078000,236.848000C113.992000,227.141000,112.884000,217.074000,112.884000,206.752000C112.884000,149.967000,146.128000,100.802000,194.176000,77.692000L240.408000,162.925000C241.775000,165.444000,244.368000,166.873000,247.047000,166.873000C248.262000,166.873000,249.494000,166.579000,250.637000,165.959000C254.300000,163.972000,255.658000,159.392000,253.672000,155.730000L208.180000,71.863000C223.141000,66.544000,239.236000,63.636000,255.999000,63.636000C315.302000,63.636000,366.293000,99.894000,387.976000,151.404000L309.850000,188.893000C306.094000,190.697000,304.510000,195.203000,306.313000,198.960000ZM116.364000,75.461000C116.407000,75.418000,116.450000,75.373000,116.492000,75.328000C131.973000,58.875000,150.330000,45.457000,171.179000,35.297000L186.976000,64.420000C134.231000,90.103000,97.795000,144.251000,97.795000,206.754000C97.795000,218.612000,99.116000,230.166000,101.601000,241.286000L69.528000,251.114000C66.140000,236.871000,64.335000,222.020000,64.335000,206.754000C64.336000,154.573000,81.840000,110.400000,116.364000,75.461000ZM73.604000,265.646000L105.600000,255.841000C126.303000,319.118000,185.894000,364.959000,256,364.959000C270.521000,364.959000,284.587000,362.982000,297.955000,359.302000L309.504000,390.809000C292.516000,395.755000,274.564000,398.418000,256,398.418000C170.854000,398.418000,98.512000,342.604000,73.604000,265.646000ZM323.817000,386.013000L312.301000,354.596000C371.818000,331.855000,414.205000,274.165000,414.205000,206.753000C414.205000,190.146000,411.626000,174.131000,406.860000,159.080000L437.275000,144.486000C444.003000,164.018000,447.665000,184.965000,447.665000,206.753000C447.664000,288.570000,396.127000,358.565000,323.817000,386.013000Z" fill="rgb(210,210,210)" stroke="none" stroke-width="1" stroke-miterlimit="1"/><g id="e6g5xB4IaQR7"><path id="e6g5xB4IaQR8" d="M454.758000,201.638000C453.330000,200.090000,451.319000,199.209000,449.213000,199.209000L256.738000,199.209000C254.632000,199.209000,252.622000,200.090000,251.193000,201.638000C249.765000,203.186000,249.048000,205.261000,249.218000,207.360000C251.242000,232.455000,262.970000,255.729000,282.241000,272.896000C301.533000,290.081000,326.653000,299.546000,352.974000,299.546000C379.296000,299.546000,404.417000,290.081000,423.709000,272.896000C442.980000,255.730000,454.707000,232.454000,456.732000,207.360000C456.903000,205.260000,456.187000,203.185000,454.758000,201.638000Z" fill="rgb(182,228,234)" stroke="none" stroke-width="1" stroke-miterlimit="1"/><path id="e6g5xB4IaQR9" d="M453.888000,200.844000C449.018000,219.484000,438.642000,236.458000,423.711000,249.759000C404.419000,266.944000,379.299000,276.409000,352.976000,276.409000C326.654000,276.409000,301.533000,266.944000,282.243000,249.759000C267.312000,236.458000,256.936000,219.483000,252.065000,200.844000C251.758000,201.086000,251.463000,201.346000,251.195000,201.638000C249.767000,203.186000,249.050000,205.261000,249.220000,207.360000C251.244000,232.455000,262.972000,255.729000,282.243000,272.896000C301.535000,290.081000,326.655000,299.546000,352.976000,299.546000C379.298000,299.546000,404.419000,290.081000,423.711000,272.896000C442.982000,255.730000,454.709000,232.454000,456.734000,207.360000C456.903000,205.261000,456.188000,203.185000,454.759000,201.638000C454.490000,201.346000,454.195000,201.087000,453.888000,200.844000Z" fill="rgb(111,200,241)" stroke="none" stroke-width="1" stroke-miterlimit="1"/><path id="e6g5xB4IaQR10" d="M263.704000,402.929000C265.230000,401.476000,266.079000,399.452000,266.046000,397.347000L263.049000,204.896000C263.016000,202.790000,262.104000,200.794000,260.534000,199.389000C258.964000,197.985000,256.878000,197.301000,254.782000,197.503000C229.722000,199.917000,206.633000,212.007000,189.768000,231.543000C172.885000,251.099000,163.813000,276.365000,164.222000,302.683000C164.631000,329.002000,174.487000,353.973000,191.970000,372.994000C209.435000,391.995000,232.890000,403.359000,258.013000,404.992000C260.115000,405.130000,262.178000,404.382000,263.704000,402.929000Z" fill="rgb(182,228,234)" stroke="none" stroke-width="1" stroke-miterlimit="1"/><path id="e6g5xB4IaQR11" d="M212.090000,372.995000C194.606000,353.973000,184.752000,329.003000,184.342000,302.684000C183.933000,276.366000,193.004000,251.101000,209.888000,231.544000C223.586000,215.675000,241.391000,204.722000,261.023000,199.874000C260.867000,199.707000,260.707000,199.544000,260.536000,199.391000C258.966000,197.987000,256.880000,197.303000,254.784000,197.505000C229.724000,199.919000,206.635000,212.009000,189.770000,231.544000C172.887000,251.100000,163.815000,276.366000,164.224000,302.684000C164.633000,329.003000,174.489000,353.974000,191.972000,372.995000C209.437000,391.996000,232.892000,403.360000,258.015000,404.993000C260.112000,405.130000,262.170000,404.384000,263.693000,402.939000C244.112000,398.638000,226.157000,388.300000,212.090000,372.995000Z" fill="rgb(111,200,241)" stroke="none" stroke-width="1" stroke-miterlimit="1"/><path id="e6g5xB4IaQR12" d="M59.462000,215.032000C60.938000,216.535000,62.975000,217.353000,65.080000,217.287000L257.462000,211.294000C259.567000,211.229000,261.549000,210.286000,262.928000,208.694000C264.307000,207.102000,264.959000,205.006000,264.724000,202.913000C261.919000,177.893000,249.472000,154.995000,229.676000,138.436000C209.859000,121.859000,184.456000,113.182000,158.147000,114.002000C131.838000,114.822000,107.024000,125.063000,88.277000,142.841000C69.549000,160.600000,58.552000,184.228000,57.310000,209.374000C57.207000,211.478000,57.986000,213.530000,59.462000,215.032000Z" fill="rgb(182,228,234)" stroke="none" stroke-width="1" stroke-miterlimit="1"/><path id="e6g5xB4IaQR13" d="M59.738000,215.285000C64.088000,196.703000,73.902000,179.610000,88.276000,165.979000C107.024000,148.201000,131.837000,137.960000,158.146000,137.140000C184.455000,136.320000,209.858000,144.997000,229.675000,161.574000C245.134000,174.504000,256.085000,191.311000,261.489000,209.966000C262.014000,209.606000,262.502000,209.185000,262.927000,208.694000C264.306000,207.102000,264.958000,205.006000,264.723000,202.913000C261.918000,177.893000,249.471000,154.995000,229.675000,138.437000C209.858000,121.860000,184.455000,113.183000,158.146000,114.002000C131.837000,114.822000,107.023000,125.064000,88.276000,142.841000C69.548000,160.599000,58.552000,184.228000,57.310000,209.374000C57.206000,211.478000,57.987000,213.530000,59.463000,215.031000C59.549000,215.122000,59.646000,215.200000,59.738000,215.285000Z" fill="rgb(111,200,241)" stroke="none" stroke-width="1" stroke-miterlimit="1"/><path id="e6g5xB4IaQR14" d="M244.156000,7.890000C242.676000,9.389000,241.891000,11.439000,241.988000,13.542000L250.976000,205.807000C251.075000,207.911000,252.048000,209.878000,253.661000,211.232000C255.275000,212.587000,257.380000,213.205000,259.469000,212.938000C284.442000,209.744000,307.143000,196.943000,323.391000,176.890000C339.657000,156.817000,347.938000,131.282000,346.709000,104.989000C345.480000,78.696000,334.853000,54.044000,316.785000,35.575000C298.737000,17.127000,274.940000,6.498000,249.779000,5.648000C247.675000,5.579000,245.636000,6.391000,244.156000,7.890000Z" fill="rgb(182,228,234)" stroke="none" stroke-width="1" stroke-miterlimit="1"/><path id="e6g5xB4IaQR15" d="M346.710000,104.990000C345.481000,78.697000,334.854000,54.045000,316.786000,35.577000C298.739000,17.129000,274.942000,6.500000,249.780000,5.650000C247.686000,5.580000,245.657000,6.384000,244.180000,7.869000C262.721000,11.962000,279.864000,21.484000,293.650000,35.577000C311.718000,54.045000,322.344000,78.697000,323.574000,104.990000C324.803000,131.283000,316.522000,156.819000,300.256000,176.891000C287.521000,192.608000,270.810000,203.844000,252.159000,209.518000C252.567000,210.156000,253.070000,210.736000,253.662000,211.233000C255.276000,212.588000,257.381000,213.206000,259.470000,212.939000C284.443000,209.745000,307.144000,196.944000,323.392000,176.891000C339.659000,156.818000,347.940000,131.283000,346.710000,104.990000Z" fill="rgb(111,200,241)" stroke="none" stroke-width="1" stroke-miterlimit="1"/></g><path id="e6g5xB4IaQR16" d="M259.462000,151.785000C228.337000,151.785000,203.016000,177.106000,203.016000,208.231000C203.016000,239.356000,228.337000,264.677000,259.462000,264.677000C290.587000,264.677000,315.908000,239.356000,315.908000,208.231000C315.908000,177.106000,290.587000,151.785000,259.462000,151.785000Z" fill="rgb(247,245,245)" stroke="none" stroke-width="1" stroke-miterlimit="1"/><circle id="e6g5xB4IaQR17" r="40.799000" transform="matrix(1 0 0 1 259.46100000000001 208.22900000000001)" fill="rgb(111,200,241)" stroke="none" stroke-width="1" stroke-miterlimit="1"/><path id="e6g5xB4IaQR18" d="M262.314000,187.310000C249.032000,185.983000,237.913000,197.103000,239.241000,210.384000C240.224000,220.217000,248.177000,228.169000,258.009000,229.152000C271.291000,230.480000,282.411000,219.359000,281.083000,206.077000C280.100000,196.243000,272.147000,188.291000,262.314000,187.310000Z" fill="rgb(96,102,115)" stroke="none" stroke-width="1" stroke-miterlimit="1"/><script><![CDATA[!function(t,n){"object"==typeof exports&&"undefined"!=typeof module?module.exports=n():"function"==typeof define&&define.amd?define(n):(t="undefined"!=typeof globalThis?globalThis:t||self).__SVGATOR_PLAYER__=n()}(this,(function(){"use strict";function t(n){return(t="function"==typeof Symbol&&"symbol"==typeof Symbol.iterator?function(t){return typeof t}:function(t){return t&&"function"==typeof Symbol&&t.constructor===Symbol&&t!==Symbol.prototype?"symbol":typeof t})(n)}function n(t,n){if(!(t instanceof n))throw new TypeError("Cannot call a class as a function")}function e(t,n){for(var e=0;e<n.length;e++){var r=n[e];r.enumerable=r.enumerable||!1,r.configurable=!0,"value"in r&&(r.writable=!0),Object.defineProperty(t,r.key,r)}}function r(t,n,r){return n&&e(t.prototype,n),r&&e(t,r),t}function i(t){return(i=Object.setPrototypeOf?Object.getPrototypeOf:function(t){return t.__proto__||Object.getPrototypeOf(t)})(t)}function o(t,n){return(o=Object.setPrototypeOf||function(t,n){return t.__proto__=n,t})(t,n)}function u(t,n){return!n||"object"!=typeof n&&"function"!=typeof n?function(t){if(void 0===t)throw new ReferenceError("this hasn't been initialised - super() hasn't been called");return t}(t):n}function a(t){var n=function(){if("undefined"==typeof Reflect||!Reflect.construct)return!1;if(Reflect.construct.sham)return!1;if("function"==typeof Proxy)return!0;try{return Boolean.prototype.valueOf.call(Reflect.construct(Boolean,[],(function(){}))),!0}catch(t){return!1}}();return function(){var e,r=i(t);if(n){var o=i(this).constructor;e=Reflect.construct(r,arguments,o)}else e=r.apply(this,arguments);return u(this,e)}}function l(t,n,e){return(l="undefined"!=typeof Reflect&&Reflect.get?Reflect.get:function(t,n,e){var r=function(t,n){for(;!Object.prototype.hasOwnProperty.call(t,n)&&null!==(t=i(t)););return t}(t,n);if(r){var o=Object.getOwnPropertyDescriptor(r,n);return o.get?o.get.call(e):o.value}})(t,n,e||t)}var f=Math.abs;function s(t){return t}function c(t,n,e){var r=1-e;return 3*e*r*(t*r+n*e)+e*e*e}function h(){var t=arguments.length>0&&void 0!==arguments[0]?arguments[0]:0,n=arguments.length>1&&void 0!==arguments[1]?arguments[1]:0,e=arguments.length>2&&void 0!==arguments[2]?arguments[2]:1,r=arguments.length>3&&void 0!==arguments[3]?arguments[3]:1;return t<0||t>1||e<0||e>1?null:f(t-n)<=1e-5&&f(e-r)<=1e-5?s:function(i){if(i<=0)return t>0?i*n/t:0===n&&e>0?i*r/e:0;if(i>=1)return e<1?1+(i-1)*(r-1)/(e-1):1===e&&t<1?1+(i-1)*(n-1)/(t-1):1;for(var o,u=0,a=1;u<a;){var l=c(t,e,o=(u+a)/2);if(f(i-l)<1e-5)break;l<i?u=o:a=o}return c(n,r,o)}}function v(){return 1}function y(t){return 1===t?1:0}function d(){var t=arguments.length>0&&void 0!==arguments[0]?arguments[0]:1,n=arguments.length>1&&void 0!==arguments[1]?arguments[1]:0;if(1===t){if(0===n)return y;if(1===n)return v}var e=1/t;return function(t){return t>=1?1:(t+=n*e)-t%e}}function g(t){var n=arguments.length>1&&void 0!==arguments[1]?arguments[1]:2;if(Number.isInteger(t))return t;var e=Math.pow(10,n);return Math.round(t*e)/e}var p=Math.PI/180;function m(t,n,e){return t>=.5?e:n}function b(t,n,e){return 0===t||n===e?n:t*(e-n)+n}function w(t,n,e){var r=b(t,n,e);return r<=0?0:r}function x(t,n,e){return 0===t?n:1===t?e:{x:b(t,n.x,e.x),y:b(t,n.y,e.y)}}function k(t,n,e){var r=function(t,n,e){return Math.round(b(t,n,e))}(t,n,e);return r<=0?0:r>=255?255:r}function A(t,n,e){return 0===t?n:1===t?e:{r:k(t,n.r,e.r),g:k(t,n.g,e.g),b:k(t,n.b,e.b),a:b(t,null==n.a?1:n.a,null==e.a?1:e.a)}}function _(t,n,e){if(0===t)return n;if(1===t)return e;var r=n.length;if(r!==e.length)return m(t,n,e);for(var i=[],o=0;o<r;o++)i.push(A(t,n[o],e[o]));return i}function S(t,n){for(var e=[],r=0;r<t;r++)e.push(n);return e}function O(t,n){if(--n<=0)return t;var e=(t=Object.assign([],t)).length;do{for(var r=0;r<e;r++)t.push(t[r])}while(--n>0);return t}var M,j=function(){function t(e){n(this,t),this.list=e,this.length=e.length}return r(t,[{key:"setAttribute",value:function(t,n){for(var e=this.list,r=0;r<this.length;r++)e[r].setAttribute(t,n)}},{key:"removeAttribute",value:function(t){for(var n=this.list,e=0;e<this.length;e++)n[e].removeAttribute(t)}},{key:"style",value:function(t,n){for(var e=this.list,r=0;r<this.length;r++)e[r].style[t]=n}}]),t}(),F=/-./g,P=function(t,n){return n.toUpperCase()};function B(t){return"function"==typeof t?t:m}function I(t){return t?"function"==typeof t?t:Array.isArray(t)?function(t){var n=arguments.length>1&&void 0!==arguments[1]?arguments[1]:s;if(!Array.isArray(t))return n;switch(t.length){case 1:return d(t[0])||n;case 2:return d(t[0],t[1])||n;case 4:return h(t[0],t[1],t[2],t[3])||n}return n}(t,null):function(t,n){var e=arguments.length>2&&void 0!==arguments[2]?arguments[2]:s;switch(t){case"linear":return s;case"steps":return d(n.steps||1,n.jump||0)||e;case"bezier":case"cubic-bezier":return h(n.x1||0,n.y1||0,n.x2||0,n.y2||0)||e}return e}(t.type,t.value,null):null}function E(t,n,e){var r=arguments.length>3&&void 0!==arguments[3]&&arguments[3],i=n.length-1;if(t<=n[0].t)return r?[0,0,n[0].v]:n[0].v;if(t>=n[i].t)return r?[i,1,n[i].v]:n[i].v;var o,u=n[0],a=null;for(o=1;o<=i;o++){if(!(t>n[o].t)){a=n[o];break}u=n[o]}return null==a?r?[i,1,n[i].v]:n[i].v:u.t===a.t?r?[o,1,a.v]:a.v:(t=(t-u.t)/(a.t-u.t),u.e&&(t=u.e(t)),r?[o,t,e(t,u.v,a.v)]:e(t,u.v,a.v))}function R(t,n){var e=arguments.length>2&&void 0!==arguments[2]?arguments[2]:null;return t&&t.length?"function"!=typeof n?null:("function"!=typeof e&&(e=null),function(r){var i=E(r,t,n);return null!=i&&e&&(i=e(i)),i}):null}function q(t,n){return t.t-n.t}function T(n,e,r,i,o){var u,a="@"===r[0],l="#"===r[0],f=M[r],s=m;switch(a?(u=r.substr(1),r=u.replace(F,P)):l&&(r=r.substr(1)),t(f)){case"function":if(s=f(i,o,E,I,r,a,e,n),l)return s;break;case"string":s=R(i,B(f));break;case"object":if((s=R(i,B(f.i),f.f))&&"function"==typeof f.u)return f.u(e,s,r,a,n)}return s?function(t,n,e){var r=arguments.length>3&&void 0!==arguments[3]&&arguments[3];if(r)return t instanceof j?function(r){return t.style(n,e(r))}:function(r){return t.style[n]=e(r)};if(Array.isArray(n)){var i=n.length;return function(r){var o=e(r);if(null==o)for(var u=0;u<i;u++)t[u].removeAttribute(n);else for(var a=0;a<i;a++)t[a].setAttribute(n,o)}}return function(r){var i=e(r);null==i?t.removeAttribute(n):t.setAttribute(n,i)}}(e,r,s,a):null}function N(n,e,r,i){if(!i||"object"!==t(i))return null;var o=null,u=null;return Array.isArray(i)?u=function(t){if(!t||!t.length)return null;for(var n=0;n<t.length;n++)t[n].e&&(t[n].e=I(t[n].e));return t.sort(q)}(i):(u=i.keys,o=i.data||null),u?T(n,e,r,u,o):null}function C(t,n,e){if(!e)return null;var r=[];for(var i in e)if(e.hasOwnProperty(i)){var o=N(t,n,i,e[i]);o&&r.push(o)}return r.length?r:null}function z(t,n){if(!n.duration||n.duration<0)return null;var e=function(t,n){if(!n)return null;var e=[];if(Array.isArray(n))for(var r=n.length,i=0;i<r;i++){var o=n[i];if(2===o.length){var u=null;if("string"==typeof o[0])u=t.getElementById(o[0]);else if(Array.isArray(o[0])){u=[];for(var a=0;a<o[0].length;a++)if("string"==typeof o[0][a]){var l=t.getElementById(o[0][a]);l&&u.push(l)}u=u.length?1===u.length?u[0]:new j(u):null}if(u){var f=C(t,u,o[1]);f&&(e=e.concat(f))}}}else for(var s in n)if(n.hasOwnProperty(s)){var c=t.getElementById(s);if(c){var h=C(t,c,n[s]);h&&(e=e.concat(h))}}return e.length?e:null}(t,n.elements);return e?function(t,n){var e=arguments.length>2&&void 0!==arguments[2]?arguments[2]:1/0,r=arguments.length>3&&void 0!==arguments[3]?arguments[3]:1,i=arguments.length>4&&void 0!==arguments[4]&&arguments[4],o=arguments.length>5&&void 0!==arguments[5]?arguments[5]:1,u=t.length,a=r>0?n:0;i&&e%2==0&&(a=n-a);var l=null;return function(f,s){var c=f%n,h=1+(f-c)/n;s*=r,i&&h%2==0&&(s=-s);var v=!1;if(h>e)c=a,v=!0,-1===o&&(c=r>0?0:n);else if(s<0&&(c=n-c),c===l)return!1;l=c;for(var y=0;y<u;y++)t[y](c);return v}}(e,n.duration,n.iterations||1/0,n.direction||1,!!n.alternate,n.fill||1):null}var L=function(){function t(e,r){var i=arguments.length>2&&void 0!==arguments[2]?arguments[2]:{};n(this,t),this._id=0,this._running=!1,this._rollingBack=!1,this._animations=e,this.duration=r.duration,this.alternate=r.alternate,this.fill=r.fill,this.iterations=r.iterations,this.direction=i.direction||1,this.speed=i.speed||1,this.fps=i.fps||100,this.offset=i.offset||0,this.rollbackStartOffset=0}return r(t,[{key:"_rollback",value:function(){var t=this,n=1/0,e=null;this.rollbackStartOffset=this.offset,this._rollingBack||(this._rollingBack=!0,this._running=!0);this._id=window.requestAnimationFrame((function r(i){if(t._rollingBack){null==e&&(e=i);var o=i-e,u=t.rollbackStartOffset-o,a=Math.round(u*t.speed);if(a>t.duration&&n!=1/0){var l=!!t.alternate&&a/t.duration%2>1,f=a%t.duration;a=(f+=l?t.duration:0)||t.duration}var s=t.fps?1e3/t.fps:0,c=Math.max(0,a);if(c<n-s){t.offset=c,n=c;for(var h=t._animations,v=h.length,y=0;y<v;y++)h[y](c,t.direction)}var d=!1;if(t.iterations>0&&-1===t.fill){var g=t.iterations*t.duration,p=g==a;a=p?0:a,t.offset=p?0:t.offset,d=a>g}a>0&&t.offset>=a&&!d?t._id=window.requestAnimationFrame(r):t.stop()}}))}},{key:"_start",value:function(){var t=this,n=arguments.length>0&&void 0!==arguments[0]?arguments[0]:0,e=-1/0,r=null,i={},o=function o(u){t._running=!0,null==r&&(r=u);var a=Math.round((u-r+n)*t.speed),l=t.fps?1e3/t.fps:0;if(a>e+l&&!t._rollingBack){t.offset=a,e=a;for(var f=t._animations,s=f.length,c=0,h=0;h<s;h++)i[h]?c++:(i[h]=f[h](a,t.direction),i[h]&&c++);if(c===s)return void t._stop()}t._id=window.requestAnimationFrame(o)};this._id=window.requestAnimationFrame(o)}},{key:"_stop",value:function(){this._id&&window.cancelAnimationFrame(this._id),this._running=!1,this._rollingBack=!1}},{key:"play",value:function(){!this._rollingBack&&this._running||(this._rollingBack=!1,this.rollbackStartOffset>this.duration&&(this.offset=this.rollbackStartOffset-(this.rollbackStartOffset-this.offset)%this.duration,this.rollbackStartOffset=0),this._start(this.offset))}},{key:"stop",value:function(){this._stop(),this.offset=0,this.rollbackStartOffset=0;var t=this.direction,n=this._animations;window.requestAnimationFrame((function(){for(var e=0;e<n.length;e++)n[e](0,t)}))}},{key:"reachedToEnd",value:function(){return this.iterations>0&&this.offset>=this.iterations*this.duration}},{key:"restart",value:function(){this._stop(),this.offset=0,this._start()}},{key:"pause",value:function(){this._stop()}},{key:"reverse",value:function(){this.direction=-this.direction}}],[{key:"build",value:function(n,e){return(n=function(t,n){if(M=n,!t||!t.root||!Array.isArray(t.animations))return null;for(var e=document.getElementsByTagName("svg"),r=!1,i=0;i<e.length;i++)if(e[i].id===t.root&&!e[i].svgatorAnimation){(r=e[i]).svgatorAnimation=!0;break}if(!r)return null;var o=t.animations.map((function(t){return z(r,t)})).filter((function(t){return!!t}));return o.length?{element:r,animations:o,animationSettings:t.animationSettings,options:t.options||void 0}:null}(n,e))?{el:n.element,options:n.options||{},player:new t(n.animations,n.animationSettings,n.options)}:null}}]),t}();!function(){for(var t=0,n=["ms","moz","webkit","o"],e=0;e<n.length&&!window.requestAnimationFrame;++e)window.requestAnimationFrame=window[n[e]+"RequestAnimationFrame"],window.cancelAnimationFrame=window[n[e]+"CancelAnimationFrame"]||window[n[e]+"CancelRequestAnimationFrame"];window.requestAnimationFrame||(window.requestAnimationFrame=function(n){var e=Date.now(),r=Math.max(0,16-(e-t)),i=window.setTimeout((function(){n(e+r)}),r);return t=e+r,i},window.cancelAnimationFrame=window.clearTimeout)}();var D=/\.0+$/g;function Q(t){return Number.isInteger(t)?t+"":t.toFixed(6).replace(D,"")}function U(t){var n=arguments.length>1&&void 0!==arguments[1]?arguments[1]:" ";return t&&t.length?t.map(Q).join(n):""}function V(t){return t?null==t.a||t.a>=1?"rgb("+t.r+","+t.g+","+t.b+")":"rgba("+t.r+","+t.g+","+t.b+","+t.a+")":"transparent"}var $={f:null,i:function(t,n,e){return 0===t?n:1===t?e:{x:w(t,n.x,e.x),y:w(t,n.y,e.y)}},u:function(t,n){return function(e){var r=n(e);t.setAttribute("rx",Q(r.x)),t.setAttribute("ry",Q(r.y))}}},G={f:null,i:function(t,n,e){return 0===t?n:1===t?e:{width:w(t,n.width,e.width),height:w(t,n.height,e.height)}},u:function(t,n){return function(e){var r=n(e);t.setAttribute("width",Q(r.width)),t.setAttribute("height",Q(r.height))}}},H=Math.sin,Y=Math.cos,Z=Math.acos,J=Math.asin,K=Math.tan,W=Math.atan2,X=Math.PI/180,tt=180/Math.PI,nt=Math.sqrt,et=function(){function t(){var e=arguments.length>0&&void 0!==arguments[0]?arguments[0]:1,r=arguments.length>1&&void 0!==arguments[1]?arguments[1]:0,i=arguments.length>2&&void 0!==arguments[2]?arguments[2]:0,o=arguments.length>3&&void 0!==arguments[3]?arguments[3]:1,u=arguments.length>4&&void 0!==arguments[4]?arguments[4]:0,a=arguments.length>5&&void 0!==arguments[5]?arguments[5]:0;n(this,t),this.m=[e,r,i,o,u,a],this.i=null,this.w=null,this.s=null}return r(t,[{key:"determinant",get:function(){var t=this.m;return t[0]*t[3]-t[1]*t[2]}},{key:"isIdentity",get:function(){if(null===this.i){var t=this.m;this.i=1===t[0]&&0===t[1]&&0===t[2]&&1===t[3]&&0===t[4]&&0===t[5]}return this.i}},{key:"point",value:function(t,n){var e=this.m;return{x:e[0]*t+e[2]*n+e[4],y:e[1]*t+e[3]*n+e[5]}}},{key:"translateSelf",value:function(){var t=arguments.length>0&&void 0!==arguments[0]?arguments[0]:0,n=arguments.length>1&&void 0!==arguments[1]?arguments[1]:0;if(!t&&!n)return this;var e=this.m;return e[4]+=e[0]*t+e[2]*n,e[5]+=e[1]*t+e[3]*n,this.w=this.s=this.i=null,this}},{key:"rotateSelf",value:function(){var t=arguments.length>0&&void 0!==arguments[0]?arguments[0]:0;if(t%=360){var n=H(t*=X),e=Y(t),r=this.m,i=r[0],o=r[1];r[0]=i*e+r[2]*n,r[1]=o*e+r[3]*n,r[2]=r[2]*e-i*n,r[3]=r[3]*e-o*n,this.w=this.s=this.i=null}return this}},{key:"scaleSelf",value:function(){var t=arguments.length>0&&void 0!==arguments[0]?arguments[0]:1,n=arguments.length>1&&void 0!==arguments[1]?arguments[1]:1;if(1!==t||1!==n){var e=this.m;e[0]*=t,e[1]*=t,e[2]*=n,e[3]*=n,this.w=this.s=this.i=null}return this}},{key:"skewSelf",value:function(t,n){if(n%=360,(t%=360)||n){var e=this.m,r=e[0],i=e[1],o=e[2],u=e[3];t&&(t=K(t*X),e[2]+=r*t,e[3]+=i*t),n&&(n=K(n*X),e[0]+=o*n,e[1]+=u*n),this.w=this.s=this.i=null}return this}},{key:"resetSelf",value:function(){var t=arguments.length>0&&void 0!==arguments[0]?arguments[0]:1,n=arguments.length>1&&void 0!==arguments[1]?arguments[1]:0,e=arguments.length>2&&void 0!==arguments[2]?arguments[2]:0,r=arguments.length>3&&void 0!==arguments[3]?arguments[3]:1,i=arguments.length>4&&void 0!==arguments[4]?arguments[4]:0,o=arguments.length>5&&void 0!==arguments[5]?arguments[5]:0,u=this.m;return u[0]=t,u[1]=n,u[2]=e,u[3]=r,u[4]=i,u[5]=o,this.w=this.s=this.i=null,this}},{key:"recomposeSelf",value:function(){var t=arguments.length>0&&void 0!==arguments[0]?arguments[0]:null,n=arguments.length>1&&void 0!==arguments[1]?arguments[1]:null,e=arguments.length>2&&void 0!==arguments[2]?arguments[2]:null,r=arguments.length>3&&void 0!==arguments[3]?arguments[3]:null,i=arguments.length>4&&void 0!==arguments[4]?arguments[4]:null;return this.isIdentity||this.resetSelf(),t&&(t.x||t.y)&&this.translateSelf(t.x,t.y),n&&this.rotateSelf(n),e&&(e.x&&this.skewSelf(e.x,0),e.y&&this.skewSelf(0,e.y)),!r||1===r.x&&1===r.y||this.scaleSelf(r.x,r.y),i&&(i.x||i.y)&&this.translateSelf(i.x,i.y),this}},{key:"decompose",value:function(){var t=arguments.length>0&&void 0!==arguments[0]?arguments[0]:0,n=arguments.length>1&&void 0!==arguments[1]?arguments[1]:0,e=this.m,r=e[0]*e[0]+e[1]*e[1],i=[[e[0],e[1]],[e[2],e[3]]],o=nt(r);if(0===o)return{origin:{x:e[4],y:e[5]},translate:{x:t,y:n},scale:{x:0,y:0},skew:{x:0,y:0},rotate:0};i[0][0]/=o,i[0][1]/=o;var u=e[0]*e[3]-e[1]*e[2]<0;u&&(o=-o);var a=i[0][0]*i[1][0]+i[0][1]*i[1][1];i[1][0]-=i[0][0]*a,i[1][1]-=i[0][1]*a;var l=nt(i[1][0]*i[1][0]+i[1][1]*i[1][1]);if(0===l)return{origin:{x:e[4],y:e[5]},translate:{x:t,y:n},scale:{x:o,y:0},skew:{x:0,y:0},rotate:0};i[1][0]/=l,i[1][1]/=l,a/=l;var f=0;return i[1][1]<0?(f=Z(i[1][1])*tt,i[0][1]<0&&(f=360-f)):f=J(i[0][1])*tt,u&&(f=-f),a=W(a,nt(i[0][0]*i[0][0]+i[0][1]*i[0][1]))*tt,u&&(a=-a),{origin:{x:e[4],y:e[5]},translate:{x:t,y:n},scale:{x:o,y:l},skew:{x:a,y:0},rotate:f}}},{key:"toString",value:function(){return null===this.s&&(this.s="matrix("+this.m.map(it).join(" ")+")"),this.s}}]),t}(),rt=/\.0+$/;function it(t){return Number.isInteger(t)?t:t.toFixed(14).replace(rt,"")}Object.freeze({M:2,L:2,Z:0,H:1,V:1,C:6,Q:4,T:2,S:4,A:7});var ot={},ut=null;function at(n){var e=function(){if(ut)return ut;if("object"!==("undefined"==typeof document?"undefined":t(document))||!document.createElementNS)return{};var n=document.createElementNS("http://www.w3.org/2000/svg","svg");return n&&n.style?(n.style.position="absolute",n.style.opacity="0.01",n.style.zIndex="-9999",n.style.left="-9999px",n.style.width="1px",n.style.height="1px",ut={svg:n}):{}}().svg;if(!e)return function(t){return null};var r=document.createElementNS(e.namespaceURI,"path");r.setAttributeNS(null,"d",n),r.setAttributeNS(null,"fill","none"),r.setAttributeNS(null,"stroke","none"),e.appendChild(r);var i=r.getTotalLength();return function(t){var n=r.getPointAtLength(i*t);return{x:n.x,y:n.y}}}function lt(t){return ot[t]?ot[t]:ot[t]=at(t)}function ft(t,n,e,r){if(!t||!r)return!1;var i=["M",t.x,t.y];if(n&&e&&(i.push("C"),i.push(n.x),i.push(n.y),i.push(e.x),i.push(e.y)),n?!e:e){var o=n||e;i.push("Q"),i.push(o.x),i.push(o.y)}return n||e||i.push("L"),i.push(r.x),i.push(r.y),i.join(" ")}function st(t,n,e,r){var i=arguments.length>4&&void 0!==arguments[4]?arguments[4]:1,o=ft(t,n,e,r),u=lt(o);try{return u(i)}catch(t){return null}}function ct(t,n,e,r){var i=1-r;return i*i*t+2*i*r*n+r*r*e}function ht(t,n,e,r){return 2*(1-r)*(n-t)+2*r*(e-n)}function vt(t,n,e,r){var i=arguments.length>4&&void 0!==arguments[4]&&arguments[4],o=st(t,n,null,e,r);return o||(o={x:ct(t.x,n.x,e.x,r),y:ct(t.y,n.y,e.y,r)}),i&&(o.a=yt(t,n,e,r)),o}function yt(t,n,e,r){return Math.atan2(ht(t.y,n.y,e.y,r),ht(t.x,n.x,e.x,r))}function dt(t,n,e,r,i){var o=i*i;return i*o*(r-t+3*(n-e))+3*o*(t+e-2*n)+3*i*(n-t)+t}function gt(t,n,e,r,i){var o=1-i;return 3*(o*o*(n-t)+2*o*i*(e-n)+i*i*(r-e))}function pt(t,n,e,r,i){var o=arguments.length>5&&void 0!==arguments[5]&&arguments[5],u=st(t,n,e,r,i);return u||(u={x:dt(t.x,n.x,e.x,r.x,i),y:dt(t.y,n.y,e.y,r.y,i)}),o&&(u.a=mt(t,n,e,r,i)),u}function mt(t,n,e,r,i){return Math.atan2(gt(t.y,n.y,e.y,r.y,i),gt(t.x,n.x,e.x,r.x,i))}function bt(t,n,e){return t+(n-t)*e}function wt(t,n,e){var r=arguments.length>3&&void 0!==arguments[3]&&arguments[3],i={x:bt(t.x,n.x,e),y:bt(t.y,n.y,e)};return r&&(i.a=xt(t,n)),i}function xt(t,n){return Math.atan2(n.y-t.y,n.x-t.x)}function kt(t,n,e){var r=arguments.length>3&&void 0!==arguments[3]&&arguments[3];if(_t(n)){if(St(e))return vt(n,e.start,e,t,r)}else if(_t(e)){if(n.end)return vt(n,n.end,e,t,r)}else{if(n.end)return e.start?pt(n,n.end,e.start,e,t,r):vt(n,n.end,e,t,r);if(e.start)return vt(n,e.start,e,t,r)}return wt(n,e,t,r)}function At(t,n,e){var r=kt(t,n,e,!0);return r.a=function(t){var n=arguments.length>1&&void 0!==arguments[1]&&arguments[1];return n?t+Math.PI:t}(r.a)/p,r}function _t(t){return!t.type||"corner"===t.type}function St(t){return null!=t.start&&!_t(t)}var Ot=new et;var Mt={f:Q,i:b},jt={f:Q,i:function(t,n,e){var r=b(t,n,e);return r<=0?0:r>=1?1:r}};function Ft(t,n,e,r,i,o,u,a){return n=function(t,n,e){for(var r,i,o,u=t.length-1,a={},l=0;l<=u;l++)(r=t[l]).e&&(r.e=n(r.e)),r.v&&"g"===(i=r.v).t&&i.r&&(o=e.getElementById(i.r))&&(a[i.r]=o.querySelectorAll("stop"));return a}(t,r,a),function(r){var i,o=e(r,t,Pt);return o?"c"===o.t?V(o.v):"g"===o.t?(n[o.r]&&function(t,n){for(var e=0,r=t.length;e<r;e++)t[e].setAttribute("stop-color",V(n[e]))}(n[o.r],o.v),(i=o.r)?"url(#"+i+")":"none"):"none":"none"}}function Pt(t,n,e){if(0===t)return n;if(1===t)return e;if(n&&e){var r=n.t;if(r===e.t)switch(n.t){case"c":return{t:r,v:A(t,n.v,e.v)};case"g":if(n.r===e.r)return{t:r,v:_(t,n.v,e.v),r:n.r}}}return m(t,n,e)}var Bt={fill:Ft,"fill-opacity":jt,stroke:Ft,"stroke-opacity":jt,"stroke-width":Mt,"stroke-dashoffset":{f:Q,i:b},"stroke-dasharray":{f:function(t){var n=arguments.length>1&&void 0!==arguments[1]?arguments[1]:" ";return t&&t.length>0&&(t=t.map((function(t){return Math.floor(1e4*t)/1e4}))),U(t,n)},i:function(t,n,e){var r,i,o,u=n.length,a=e.length;if(u!==a)if(0===u)n=S(u=a,0);else if(0===a)a=u,e=S(u,0);else{var l=(o=(r=u)*(i=a)/function(t,n){for(var e;n;)e=n,n=t%n,t=e;return t||1}(r,i))<0?-o:o;n=O(n,Math.floor(l/u)),e=O(e,Math.floor(l/a)),u=a=l}for(var f=[],s=0;s<u;s++)f.push(g(w(t,n[s],e[s]),6));return f}},opacity:jt,transform:function(n,e,r,i){if(!(n=function(n,e){if(!n||"object"!==t(n))return null;var r=!1;for(var i in n)n.hasOwnProperty(i)&&(n[i]&&n[i].length?(n[i].forEach((function(t){t.e&&(t.e=e(t.e))})),r=!0):delete n[i]);return r?n:null}(n,i)))return null;var o=function(t,i,o){var u=arguments.length>3&&void 0!==arguments[3]?arguments[3]:null;return n[t]?r(i,n[t],o):e&&e[t]?e[t]:u};return e&&e.a&&n.o?function(t){var e=r(t,n.o,At);return Ot.recomposeSelf(e,o("r",t,b,0)+e.a,o("k",t,x),o("s",t,x),o("t",t,x)).toString()}:function(t){return Ot.recomposeSelf(o("o",t,kt,null),o("r",t,b,0),o("k",t,x),o("s",t,x),o("t",t,x)).toString()}},r:Mt,"#size":G,"#radius":$,_:function(t,n){if(Array.isArray(t))for(var e=0;e<t.length;e++)this[t[e]]=n;else this[t]=n}};return function(t){!function(t,n){if("function"!=typeof n&&null!==n)throw new TypeError("Super expression must either be null or a function");t.prototype=Object.create(n&&n.prototype,{constructor:{value:t,writable:!0,configurable:!0}}),n&&o(t,n)}(u,t);var e=a(u);function u(){return n(this,u),e.apply(this,arguments)}return r(u,null,[{key:"build",value:function(t){var n=l(i(u),"build",this).call(this,t,Bt);if(!n)return null;n.el,n.options;var e=n.player;return function(t,n,e){t.play()}(e),e}}]),u}(L)}));
__SVGATOR_PLAYER__.build({"root":"e6g5xB4IaQR1","animations":[{"duration":3000,"direction":1,"iterations":1,"fill":1,"alternate":false,"speed":1,"elements":{"e6g5xB4IaQR7":{"transform":{"data":{"o":{"x":257.029586795,"y":205.326491355,"type":"corner"},"t":{"x":-257.029586795,"y":-205.326491355}},"keys":{"r":[{"t":0,"v":0},{"t":500,"v":90.03827479892256},{"t":1000,"v":180.09972896436426},{"t":1500,"v":270.00344844307944},{"t":2000,"v":359.9938385682722},{"t":2500,"v":450.03244605765104},{"t":3000,"v":539.9624057727794}]}}}}}],"options":{"start":"load","font":"embed","exportedIds":"unique","svgFormat":"animated","title":"fan"},"animationSettings":{"duration":3000,"direction":1,"iterations":1,"fill":1,"alternate":false,"speed":1}})]]></script></svg>